<svg xmlns="http://www.w3.org/2000/svg" xmlns:xlink="http://www.w3.org/1999/xlink" width="500" zoomAndPan="magnify" viewBox="0 0 375 374.999991" height="500" preserveAspectRatio="xMidYMid meet" version="1.0"><defs><g/><clipPath id="09f3444d2b"><path d="M 197 121 L 256 121 L 256 233.824219 L 197 233.824219 Z M 197 121 " clip-rule="nonzero"/></clipPath><clipPath id="6eefe8c442"><path d="M 114 105 L 210 105 L 210 233.824219 L 114 233.824219 Z M 114 105 " clip-rule="nonzero"/></clipPath></defs><rect x="-37.5" width="450" fill="#ffffff" y="-37.499999" height="449.999989" fill-opacity="1"/><rect x="-37.5" width="450" fill="#ffffff" y="-37.499999" height="449.999989" fill-opacity="1"/><g fill="#000000" fill-opacity="1"><g transform="translate(73.455128, 269.093843)"><g><path d="M 5.96875 -20.328125 L 5.96875 -0.671875 L 12.21875 -0.671875 C 13.445312 -0.671875 14.671875 -0.9375 15.890625 -1.46875 C 17.117188 -2.007812 18.226562 -2.738281 19.21875 -3.65625 C 20.207031 -4.570312 20.925781 -5.601562 21.375 -6.75 L 21.71875 -6.75 L 19.53125 0 L 0 0 L 0 -0.34375 C 0.800781 -0.3125 1.398438 -0.632812 1.796875 -1.3125 C 2.203125 -1.988281 2.40625 -3.3125 2.40625 -5.28125 L 2.40625 -20.328125 C 2.40625 -22.328125 2.203125 -23.671875 1.796875 -24.359375 C 1.398438 -25.046875 0.800781 -25.363281 0 -25.3125 L 0 -25.65625 L 8.359375 -25.65625 L 8.359375 -25.3125 C 7.554688 -25.363281 6.957031 -25.046875 6.5625 -24.359375 C 6.164062 -23.671875 5.96875 -22.328125 5.96875 -20.328125 Z M 5.96875 -20.328125 "/></g></g></g><g fill="#000000" fill-opacity="1"><g transform="translate(96.294081, 269.093843)"><g><path d="M 12.828125 -25.65625 C 11.046875 -25.65625 9.378906 -25.320312 7.828125 -24.65625 C 6.285156 -23.988281 4.925781 -23.066406 3.75 -21.890625 C 2.570312 -20.722656 1.648438 -19.363281 0.984375 -17.8125 C 0.328125 -16.257812 0 -14.597656 0 -12.828125 C 0 -11.046875 0.328125 -9.378906 0.984375 -7.828125 C 1.648438 -6.285156 2.570312 -4.925781 3.75 -3.75 C 4.925781 -2.570312 6.285156 -1.648438 7.828125 -0.984375 C 9.378906 -0.328125 11.046875 0 12.828125 0 C 14.597656 0 16.257812 -0.328125 17.8125 -0.984375 C 19.363281 -1.648438 20.722656 -2.570312 21.890625 -3.75 C 23.066406 -4.925781 23.988281 -6.285156 24.65625 -7.828125 C 25.320312 -9.378906 25.65625 -11.046875 25.65625 -12.828125 C 25.65625 -14.597656 25.320312 -16.257812 24.65625 -17.8125 C 23.988281 -19.363281 23.066406 -20.722656 21.890625 -21.890625 C 20.722656 -23.066406 19.363281 -23.988281 17.8125 -24.65625 C 16.257812 -25.320312 14.597656 -25.65625 12.828125 -25.65625 Z M 8.703125 -24.21875 C 9.898438 -24.644531 11.125 -24.75 12.375 -24.53125 C 13.625 -24.320312 14.835938 -23.835938 16.015625 -23.078125 C 17.191406 -22.316406 18.253906 -21.328125 19.203125 -20.109375 C 20.148438 -18.898438 20.910156 -17.507812 21.484375 -15.9375 C 22.054688 -14.363281 22.367188 -12.804688 22.421875 -11.265625 C 22.472656 -9.734375 22.285156 -8.296875 21.859375 -6.953125 C 21.429688 -5.617188 20.804688 -4.460938 19.984375 -3.484375 C 19.160156 -2.515625 18.148438 -1.816406 16.953125 -1.390625 C 15.753906 -0.960938 14.519531 -0.851562 13.25 -1.0625 C 11.988281 -1.28125 10.773438 -1.769531 9.609375 -2.53125 C 8.453125 -3.289062 7.398438 -4.273438 6.453125 -5.484375 C 5.503906 -6.703125 4.738281 -8.097656 4.15625 -9.671875 C 3.582031 -11.242188 3.269531 -12.804688 3.21875 -14.359375 C 3.175781 -15.910156 3.359375 -17.347656 3.765625 -18.671875 C 4.179688 -19.992188 4.804688 -21.144531 5.640625 -22.125 C 6.484375 -23.101562 7.503906 -23.800781 8.703125 -24.21875 Z M 8.703125 -24.21875 "/></g></g></g><g fill="#000000" fill-opacity="1"><g transform="translate(123.108298, 269.093843)"><g><path d="M 10.578125 0 L 2.328125 -23.546875 C 2.128906 -24.117188 1.851562 -24.5625 1.5 -24.875 C 1.144531 -25.1875 0.644531 -25.332031 0 -25.3125 L 0 -25.65625 L 7.578125 -25.65625 L 7.578125 -25.3125 C 6.953125 -25.332031 6.492188 -25.195312 6.203125 -24.90625 C 5.921875 -24.625 5.890625 -24.171875 6.109375 -23.546875 L 14.03125 -0.9375 L 21.1875 -21.34375 C 21.289062 -21.664062 21.347656 -21.96875 21.359375 -22.25 C 21.367188 -22.539062 21.3125 -22.847656 21.1875 -23.171875 C 21.164062 -23.296875 21.128906 -23.425781 21.078125 -23.5625 C 21.023438 -23.707031 20.972656 -23.851562 20.921875 -24 C 20.742188 -24.550781 20.472656 -24.910156 20.109375 -25.078125 C 19.753906 -25.253906 19.289062 -25.332031 18.71875 -25.3125 L 18.71875 -25.65625 C 19.613281 -25.65625 20.660156 -25.65625 21.859375 -25.65625 C 23.054688 -25.65625 24.09375 -25.65625 24.96875 -25.65625 L 24.96875 -25.3125 C 23.84375 -25.332031 23.082031 -24.78125 22.6875 -23.65625 L 14.40625 0 Z M 10.578125 0 "/></g></g></g><g fill="#000000" fill-opacity="1"><g transform="translate(149.134967, 269.093843)"><g><path d="M 0 0 L 0 -0.34375 C 0.800781 -0.3125 1.398438 -0.632812 1.796875 -1.3125 C 2.203125 -1.988281 2.40625 -3.3125 2.40625 -5.28125 L 2.40625 -20.328125 C 2.40625 -22.328125 2.203125 -23.671875 1.796875 -24.359375 C 1.398438 -25.046875 0.800781 -25.363281 0 -25.3125 L 0 -25.65625 L 19.3125 -25.65625 L 20.890625 -19.984375 L 20.546875 -19.984375 C 20.171875 -20.960938 19.554688 -21.828125 18.703125 -22.578125 C 17.859375 -23.328125 16.914062 -23.910156 15.875 -24.328125 C 14.84375 -24.753906 13.8125 -24.96875 12.78125 -24.96875 L 5.96875 -24.96875 L 5.96875 -11.96875 C 6.613281 -13.382812 7.472656 -14.257812 8.546875 -14.59375 C 9.617188 -14.9375 10.90625 -14.859375 12.40625 -14.359375 C 13.03125 -14.160156 13.660156 -13.953125 14.296875 -13.734375 C 14.941406 -13.523438 15.554688 -13.476562 16.140625 -13.59375 C 16.734375 -13.707031 17.265625 -14.125 17.734375 -14.84375 L 18.03125 -14.703125 C 17.40625 -12.847656 16.523438 -11.675781 15.390625 -11.1875 C 14.253906 -10.707031 12.863281 -10.738281 11.21875 -11.28125 C 10.613281 -11.488281 9.992188 -11.691406 9.359375 -11.890625 C 8.722656 -12.085938 8.113281 -12.140625 7.53125 -12.046875 C 6.957031 -11.960938 6.4375 -11.582031 5.96875 -10.90625 L 5.96875 -0.671875 L 12.5625 -0.671875 C 13.789062 -0.671875 15.015625 -0.9375 16.234375 -1.46875 C 17.460938 -2.007812 18.566406 -2.738281 19.546875 -3.65625 C 20.535156 -4.570312 21.257812 -5.601562 21.71875 -6.75 L 22.015625 -6.75 L 19.875 0 Z M 0 0 "/></g></g></g><g fill="#000000" fill-opacity="1"><g transform="translate(172.198941, 269.093843)"><g/></g></g><g fill="#000000" fill-opacity="1"><g transform="translate(183.187141, 269.093843)"><g><path d="M 20.328125 -20.328125 L 20.328125 0 L 19.125 0 C 18.320312 -3.070312 17.082031 -5.988281 15.40625 -8.75 C 13.738281 -11.519531 11.832031 -14.140625 9.6875 -16.609375 C 7.550781 -19.085938 5.347656 -21.390625 3.078125 -23.515625 L 3.078125 -5.28125 C 3.078125 -3.3125 3.273438 -1.988281 3.671875 -1.3125 C 4.078125 -0.632812 4.675781 -0.3125 5.46875 -0.34375 L 5.46875 0 L 0 0 L 0 -0.34375 C 0.800781 -0.3125 1.398438 -0.632812 1.796875 -1.3125 C 2.203125 -1.988281 2.40625 -3.3125 2.40625 -5.28125 L 2.40625 -20.328125 C 2.40625 -22.328125 2.203125 -23.671875 1.796875 -24.359375 C 1.398438 -25.046875 0.800781 -25.363281 0 -25.3125 L 0 -25.65625 L 5.546875 -25.65625 C 7.398438 -23.90625 9.210938 -22.0625 10.984375 -20.125 C 12.765625 -18.1875 14.410156 -16.191406 15.921875 -14.140625 C 17.429688 -12.085938 18.6875 -10 19.6875 -7.875 L 19.6875 -20.328125 C 19.6875 -22.328125 19.484375 -23.671875 19.078125 -24.359375 C 18.679688 -25.046875 18.070312 -25.363281 17.25 -25.3125 L 17.25 -25.65625 L 22.765625 -25.65625 L 22.765625 -25.3125 C 21.941406 -25.363281 21.328125 -25.046875 20.921875 -24.359375 C 20.523438 -23.671875 20.328125 -22.328125 20.328125 -20.328125 Z M 20.328125 -20.328125 "/></g></g></g><g fill="#000000" fill-opacity="1"><g transform="translate(207.038662, 269.093843)"><g><path d="M 12.828125 -25.65625 C 11.046875 -25.65625 9.378906 -25.320312 7.828125 -24.65625 C 6.285156 -23.988281 4.925781 -23.066406 3.75 -21.890625 C 2.570312 -20.722656 1.648438 -19.363281 0.984375 -17.8125 C 0.328125 -16.257812 0 -14.597656 0 -12.828125 C 0 -11.046875 0.328125 -9.378906 0.984375 -7.828125 C 1.648438 -6.285156 2.570312 -4.925781 3.75 -3.75 C 4.925781 -2.570312 6.285156 -1.648438 7.828125 -0.984375 C 9.378906 -0.328125 11.046875 0 12.828125 0 C 14.597656 0 16.257812 -0.328125 17.8125 -0.984375 C 19.363281 -1.648438 20.722656 -2.570312 21.890625 -3.75 C 23.066406 -4.925781 23.988281 -6.285156 24.65625 -7.828125 C 25.320312 -9.378906 25.65625 -11.046875 25.65625 -12.828125 C 25.65625 -14.597656 25.320312 -16.257812 24.65625 -17.8125 C 23.988281 -19.363281 23.066406 -20.722656 21.890625 -21.890625 C 20.722656 -23.066406 19.363281 -23.988281 17.8125 -24.65625 C 16.257812 -25.320312 14.597656 -25.65625 12.828125 -25.65625 Z M 8.703125 -24.21875 C 9.898438 -24.644531 11.125 -24.75 12.375 -24.53125 C 13.625 -24.320312 14.835938 -23.835938 16.015625 -23.078125 C 17.191406 -22.316406 18.253906 -21.328125 19.203125 -20.109375 C 20.148438 -18.898438 20.910156 -17.507812 21.484375 -15.9375 C 22.054688 -14.363281 22.367188 -12.804688 22.421875 -11.265625 C 22.472656 -9.734375 22.285156 -8.296875 21.859375 -6.953125 C 21.429688 -5.617188 20.804688 -4.460938 19.984375 -3.484375 C 19.160156 -2.515625 18.148438 -1.816406 16.953125 -1.390625 C 15.753906 -0.960938 14.519531 -0.851562 13.25 -1.0625 C 11.988281 -1.28125 10.773438 -1.769531 9.609375 -2.53125 C 8.453125 -3.289062 7.398438 -4.273438 6.453125 -5.484375 C 5.503906 -6.703125 4.738281 -8.097656 4.15625 -9.671875 C 3.582031 -11.242188 3.269531 -12.804688 3.21875 -14.359375 C 3.175781 -15.910156 3.359375 -17.347656 3.765625 -18.671875 C 4.179688 -19.992188 4.804688 -21.144531 5.640625 -22.125 C 6.484375 -23.101562 7.503906 -23.800781 8.703125 -24.21875 Z M 8.703125 -24.21875 "/></g></g></g><g fill="#000000" fill-opacity="1"><g transform="translate(233.852879, 269.093843)"><g><path d="M 12.59375 -5.28125 C 12.59375 -3.3125 12.789062 -1.988281 13.1875 -1.3125 C 13.59375 -0.632812 14.195312 -0.3125 15 -0.34375 L 15 0 L 6.640625 0 L 6.640625 -0.34375 C 7.441406 -0.3125 8.039062 -0.632812 8.4375 -1.3125 C 8.832031 -1.988281 9.03125 -3.3125 9.03125 -5.28125 L 9.03125 -24.96875 L 8.0625 -24.96875 C 7.0625 -24.96875 6.035156 -24.753906 4.984375 -24.328125 C 3.929688 -23.910156 2.988281 -23.328125 2.15625 -22.578125 C 1.320312 -21.828125 0.71875 -20.960938 0.34375 -19.984375 L 0 -19.984375 L 1.53125 -25.65625 L 20.0625 -25.65625 L 21.640625 -19.984375 L 21.296875 -19.984375 C 20.921875 -20.960938 20.304688 -21.828125 19.453125 -22.578125 C 18.609375 -23.328125 17.664062 -23.910156 16.625 -24.328125 C 15.59375 -24.753906 14.5625 -24.96875 13.53125 -24.96875 L 12.59375 -24.96875 Z M 12.59375 -5.28125 "/></g></g></g><g fill="#000000" fill-opacity="1"><g transform="translate(256.57933, 269.093843)"><g><path d="M 0 0 L 0 -0.34375 C 0.800781 -0.3125 1.398438 -0.632812 1.796875 -1.3125 C 2.203125 -1.988281 2.40625 -3.3125 2.40625 -5.28125 L 2.40625 -20.328125 C 2.40625 -22.328125 2.203125 -23.671875 1.796875 -24.359375 C 1.398438 -25.046875 0.800781 -25.363281 0 -25.3125 L 0 -25.65625 L 19.3125 -25.65625 L 20.890625 -19.984375 L 20.546875 -19.984375 C 20.171875 -20.960938 19.554688 -21.828125 18.703125 -22.578125 C 17.859375 -23.328125 16.914062 -23.910156 15.875 -24.328125 C 14.84375 -24.753906 13.8125 -24.96875 12.78125 -24.96875 L 5.96875 -24.96875 L 5.96875 -11.96875 C 6.613281 -13.382812 7.472656 -14.257812 8.546875 -14.59375 C 9.617188 -14.9375 10.90625 -14.859375 12.40625 -14.359375 C 13.03125 -14.160156 13.660156 -13.953125 14.296875 -13.734375 C 14.941406 -13.523438 15.554688 -13.476562 16.140625 -13.59375 C 16.734375 -13.707031 17.265625 -14.125 17.734375 -14.84375 L 18.03125 -14.703125 C 17.40625 -12.847656 16.523438 -11.675781 15.390625 -11.1875 C 14.253906 -10.707031 12.863281 -10.738281 11.21875 -11.28125 C 10.613281 -11.488281 9.992188 -11.691406 9.359375 -11.890625 C 8.722656 -12.085938 8.113281 -12.140625 7.53125 -12.046875 C 6.957031 -11.960938 6.4375 -11.582031 5.96875 -10.90625 L 5.96875 -0.671875 L 12.5625 -0.671875 C 13.789062 -0.671875 15.015625 -0.9375 16.234375 -1.46875 C 17.460938 -2.007812 18.566406 -2.738281 19.546875 -3.65625 C 20.535156 -4.570312 21.257812 -5.601562 21.71875 -6.75 L 22.015625 -6.75 L 19.875 0 Z M 0 0 "/></g></g></g><g fill="#000000" fill-opacity="1"><g transform="translate(279.643304, 269.093843)"><g><path d="M 0.34375 -10.34375 C 0.8125 -8.425781 1.578125 -6.734375 2.640625 -5.265625 C 3.703125 -3.804688 4.96875 -2.675781 6.4375 -1.875 C 7.914062 -1.070312 9.484375 -0.671875 11.140625 -0.671875 C 11.859375 -0.671875 12.628906 -0.757812 13.453125 -0.9375 C 14.285156 -1.113281 15.0625 -1.390625 15.78125 -1.765625 C 16.507812 -2.140625 17.117188 -2.644531 17.609375 -3.28125 C 18.097656 -3.914062 18.351562 -4.707031 18.375 -5.65625 C 18.425781 -6.78125 18.113281 -7.785156 17.4375 -8.671875 C 16.757812 -9.566406 15.945312 -10.226562 15 -10.65625 C 13.945312 -11.15625 12.820312 -11.53125 11.625 -11.78125 C 10.425781 -12.03125 9.210938 -12.285156 7.984375 -12.546875 C 6.765625 -12.804688 5.59375 -13.175781 4.46875 -13.65625 C 3.789062 -13.945312 3.109375 -14.316406 2.421875 -14.765625 C 1.734375 -15.222656 1.15625 -15.78125 0.6875 -16.4375 C 0.226562 -17.101562 0 -17.875 0 -18.75 C 0 -19.625 0.210938 -20.414062 0.640625 -21.125 C 1.066406 -21.84375 1.601562 -22.46875 2.25 -23 C 2.894531 -23.539062 3.546875 -23.972656 4.203125 -24.296875 C 5.128906 -24.742188 6.109375 -25.082031 7.140625 -25.3125 C 8.179688 -25.539062 9.238281 -25.65625 10.3125 -25.65625 C 12.238281 -25.65625 14.113281 -25.351562 15.9375 -24.75 C 17.757812 -24.144531 19.347656 -23.296875 20.703125 -22.203125 L 19.3125 -18.5625 C 18.0625 -20.382812 16.835938 -21.820312 15.640625 -22.875 C 14.441406 -23.925781 13.03125 -24.578125 11.40625 -24.828125 C 10.15625 -25.023438 8.882812 -24.976562 7.59375 -24.6875 C 6.300781 -24.40625 5.179688 -23.789062 4.234375 -22.84375 C 3.304688 -21.863281 2.945312 -20.851562 3.15625 -19.8125 C 3.375 -18.78125 4.132812 -17.914062 5.4375 -17.21875 C 6.457031 -16.6875 7.582031 -16.273438 8.8125 -15.984375 C 10.039062 -15.703125 11.289062 -15.429688 12.5625 -15.171875 C 13.832031 -14.910156 15.03125 -14.5625 16.15625 -14.125 C 17.28125 -13.6875 18.242188 -13.039062 19.046875 -12.1875 C 19.742188 -11.4375 20.21875 -10.53125 20.46875 -9.46875 C 20.71875 -8.40625 20.753906 -7.320312 20.578125 -6.21875 C 20.410156 -5.125 20.023438 -4.164062 19.421875 -3.34375 C 18.828125 -2.507812 18.0625 -1.847656 17.125 -1.359375 C 16.1875 -0.878906 15.1875 -0.53125 14.125 -0.3125 C 13.0625 -0.101562 12.003906 0 10.953125 0 C 8.898438 0 6.9375 -0.320312 5.0625 -0.96875 C 3.1875 -1.625 1.5 -2.613281 0 -3.9375 L 0 -10.34375 Z M 0.34375 -10.34375 "/></g></g></g><g fill="#ef1b8b" fill-opacity="0.4"><g transform="translate(93.198896, 278.721982)"><g><path d="M 3.28125 0.140625 C 2.695312 0.140625 2.191406 0.046875 1.765625 -0.140625 C 1.335938 -0.335938 1.007812 -0.613281 0.78125 -0.96875 C 0.550781 -1.332031 0.4375 -1.753906 0.4375 -2.234375 L 2 -2.234375 C 2 -1.898438 2.113281 -1.640625 2.34375 -1.453125 C 2.570312 -1.265625 2.878906 -1.171875 3.265625 -1.171875 C 3.597656 -1.171875 3.859375 -1.234375 4.046875 -1.359375 C 4.242188 -1.492188 4.34375 -1.675781 4.34375 -1.90625 C 4.34375 -2.15625 4.226562 -2.351562 4 -2.5 C 3.769531 -2.65625 3.40625 -2.789062 2.90625 -2.90625 C 2.09375 -3.070312 1.488281 -3.332031 1.09375 -3.6875 C 0.695312 -4.039062 0.5 -4.5 0.5 -5.0625 C 0.5 -5.707031 0.734375 -6.210938 1.203125 -6.578125 C 1.671875 -6.953125 2.304688 -7.140625 3.109375 -7.140625 C 3.660156 -7.140625 4.140625 -7.039062 4.546875 -6.84375 C 4.953125 -6.65625 5.265625 -6.390625 5.484375 -6.046875 C 5.710938 -5.710938 5.828125 -5.304688 5.828125 -4.828125 L 4.296875 -4.828125 C 4.296875 -5.140625 4.191406 -5.382812 3.984375 -5.5625 C 3.785156 -5.75 3.5 -5.84375 3.125 -5.84375 C 2.789062 -5.84375 2.523438 -5.773438 2.328125 -5.640625 C 2.140625 -5.515625 2.046875 -5.332031 2.046875 -5.09375 C 2.046875 -4.882812 2.148438 -4.707031 2.359375 -4.5625 C 2.578125 -4.414062 2.953125 -4.28125 3.484375 -4.15625 C 4.359375 -3.945312 4.988281 -3.664062 5.375 -3.3125 C 5.757812 -2.96875 5.953125 -2.519531 5.953125 -1.96875 C 5.953125 -1.3125 5.710938 -0.796875 5.234375 -0.421875 C 4.765625 -0.046875 4.113281 0.140625 3.28125 0.140625 Z M 3.28125 0.140625 "/></g></g></g><g fill="#ef1b8b" fill-opacity="0.4"><g transform="translate(99.606362, 278.721982)"><g><path d="M 5.171875 0 L 5.171875 -2.8125 L 2.4375 -2.8125 L 2.4375 0 L 0.84375 0 L 0.84375 -7 L 2.4375 -7 L 2.4375 -4.3125 L 5.171875 -4.3125 L 5.171875 -7 L 6.765625 -7 L 6.765625 0 Z M 5.171875 0 "/></g></g></g><g fill="#ef1b8b" fill-opacity="0.4"><g transform="translate(107.203362, 278.721982)"><g><path d="M 0.09375 0 L 2.875 -7 L 4.4375 -7 L 7.203125 0 L 5.515625 0 L 5.046875 -1.203125 L 2.265625 -1.203125 L 1.796875 0 Z M 2.671875 -2.453125 L 4.640625 -2.453125 L 3.65625 -5.015625 Z M 2.671875 -2.453125 "/></g></g></g><g fill="#ef1b8b" fill-opacity="0.4"><g transform="translate(114.500481, 278.721982)"><g><path d="M 0.84375 0 L 0.84375 -7 L 3.828125 -7 C 4.359375 -7 4.820312 -6.898438 5.21875 -6.703125 C 5.613281 -6.515625 5.914062 -6.238281 6.125 -5.875 C 6.34375 -5.519531 6.453125 -5.09375 6.453125 -4.59375 C 6.453125 -4.070312 6.332031 -3.625 6.09375 -3.25 C 5.863281 -2.882812 5.539062 -2.613281 5.125 -2.4375 L 6.5625 0 L 4.734375 0 L 3.484375 -2.1875 L 2.4375 -2.1875 L 2.4375 0 Z M 2.40625 -3.515625 L 3.625 -3.515625 C 4.007812 -3.515625 4.304688 -3.601562 4.515625 -3.78125 C 4.734375 -3.96875 4.84375 -4.234375 4.84375 -4.578125 C 4.84375 -4.921875 4.734375 -5.179688 4.515625 -5.359375 C 4.304688 -5.546875 4.007812 -5.640625 3.625 -5.640625 L 2.40625 -5.640625 Z M 2.40625 -3.515625 "/></g></g></g><g fill="#ef1b8b" fill-opacity="0.4"><g transform="translate(121.537704, 278.721982)"><g><path d="M 0.84375 0 L 0.84375 -7 L 5.4375 -7 L 5.4375 -5.65625 L 2.421875 -5.65625 L 2.421875 -4.203125 L 5.171875 -4.203125 L 5.171875 -2.875 L 2.421875 -2.875 L 2.421875 -1.34375 L 5.546875 -1.34375 L 5.546875 0 Z M 0.84375 0 "/></g></g></g><g fill="#ef1b8b" fill-opacity="0.4"><g transform="translate(127.595313, 278.721982)"><g/></g></g><g fill="#ef1b8b" fill-opacity="0.4"><g transform="translate(129.944384, 278.721982)"><g><path d="M 2.671875 0 L 2.671875 -2.453125 L 0.09375 -7 L 1.90625 -7 L 2.765625 -5.375 L 3.46875 -4.109375 L 4.15625 -5.375 L 5.015625 -7 L 6.828125 -7 L 4.265625 -2.46875 L 4.265625 0 Z M 2.671875 0 "/></g></g></g><g fill="#ef1b8b" fill-opacity="0.4"><g transform="translate(136.861651, 278.721982)"><g><path d="M 4.15625 0.140625 C 3.425781 0.140625 2.78125 -0.015625 2.21875 -0.328125 C 1.65625 -0.640625 1.21875 -1.066406 0.90625 -1.609375 C 0.59375 -2.160156 0.4375 -2.789062 0.4375 -3.5 C 0.4375 -4.207031 0.59375 -4.832031 0.90625 -5.375 C 1.21875 -5.925781 1.65625 -6.359375 2.21875 -6.671875 C 2.78125 -6.984375 3.425781 -7.140625 4.15625 -7.140625 C 4.894531 -7.140625 5.539062 -6.984375 6.09375 -6.671875 C 6.65625 -6.359375 7.097656 -5.925781 7.421875 -5.375 C 7.742188 -4.832031 7.90625 -4.207031 7.90625 -3.5 C 7.90625 -2.789062 7.742188 -2.160156 7.421875 -1.609375 C 7.097656 -1.066406 6.65625 -0.640625 6.09375 -0.328125 C 5.539062 -0.015625 4.894531 0.140625 4.15625 0.140625 Z M 2.046875 -3.5 C 2.046875 -3.082031 2.132812 -2.710938 2.3125 -2.390625 C 2.5 -2.066406 2.75 -1.816406 3.0625 -1.640625 C 3.382812 -1.460938 3.75 -1.375 4.15625 -1.375 C 4.582031 -1.375 4.953125 -1.460938 5.265625 -1.640625 C 5.578125 -1.816406 5.820312 -2.066406 6 -2.390625 C 6.175781 -2.710938 6.265625 -3.082031 6.265625 -3.5 C 6.265625 -3.914062 6.175781 -4.285156 6 -4.609375 C 5.820312 -4.929688 5.578125 -5.179688 5.265625 -5.359375 C 4.953125 -5.535156 4.582031 -5.625 4.15625 -5.625 C 3.75 -5.625 3.382812 -5.535156 3.0625 -5.359375 C 2.75 -5.179688 2.5 -4.929688 2.3125 -4.609375 C 2.132812 -4.285156 2.046875 -3.914062 2.046875 -3.5 Z M 2.046875 -3.5 "/></g></g></g><g fill="#ef1b8b" fill-opacity="0.4"><g transform="translate(145.18836, 278.721982)"><g><path d="M 3.703125 0.140625 C 3.097656 0.140625 2.578125 0.0195312 2.140625 -0.21875 C 1.703125 -0.46875 1.363281 -0.816406 1.125 -1.265625 C 0.882812 -1.710938 0.765625 -2.25 0.765625 -2.875 L 0.765625 -7 L 2.359375 -7 L 2.359375 -2.984375 C 2.359375 -1.910156 2.804688 -1.375 3.703125 -1.375 C 4.597656 -1.375 5.046875 -1.910156 5.046875 -2.984375 L 5.046875 -7 L 6.625 -7 L 6.625 -2.875 C 6.625 -2.25 6.503906 -1.710938 6.265625 -1.265625 C 6.035156 -0.816406 5.703125 -0.46875 5.265625 -0.21875 C 4.828125 0.0195312 4.304688 0.140625 3.703125 0.140625 Z M 3.703125 0.140625 "/></g></g></g><g fill="#ef1b8b" fill-opacity="0.4"><g transform="translate(152.585443, 278.721982)"><g><path d="M 0.84375 0 L 0.84375 -7 L 3.828125 -7 C 4.359375 -7 4.820312 -6.898438 5.21875 -6.703125 C 5.613281 -6.515625 5.914062 -6.238281 6.125 -5.875 C 6.34375 -5.519531 6.453125 -5.09375 6.453125 -4.59375 C 6.453125 -4.070312 6.332031 -3.625 6.09375 -3.25 C 5.863281 -2.882812 5.539062 -2.613281 5.125 -2.4375 L 6.5625 0 L 4.734375 0 L 3.484375 -2.1875 L 2.4375 -2.1875 L 2.4375 0 Z M 2.40625 -3.515625 L 3.625 -3.515625 C 4.007812 -3.515625 4.304688 -3.601562 4.515625 -3.78125 C 4.734375 -3.96875 4.84375 -4.234375 4.84375 -4.578125 C 4.84375 -4.921875 4.734375 -5.179688 4.515625 -5.359375 C 4.304688 -5.546875 4.007812 -5.640625 3.625 -5.640625 L 2.40625 -5.640625 Z M 2.40625 -3.515625 "/></g></g></g><g fill="#ef1b8b" fill-opacity="0.4"><g transform="translate(159.622666, 278.721982)"><g/></g></g><g fill="#ef1b8b" fill-opacity="0.4"><g transform="translate(161.971738, 278.721982)"><g><path d="M 0.84375 0 L 0.84375 -7 L 2.4375 -7 L 2.4375 -1.484375 L 5.484375 -1.484375 L 5.484375 0 Z M 0.84375 0 "/></g></g></g><g fill="#ef1b8b" fill-opacity="0.4"><g transform="translate(167.729466, 278.721982)"><g><path d="M 4.15625 0.140625 C 3.425781 0.140625 2.78125 -0.015625 2.21875 -0.328125 C 1.65625 -0.640625 1.21875 -1.066406 0.90625 -1.609375 C 0.59375 -2.160156 0.4375 -2.789062 0.4375 -3.5 C 0.4375 -4.207031 0.59375 -4.832031 0.90625 -5.375 C 1.21875 -5.925781 1.65625 -6.359375 2.21875 -6.671875 C 2.78125 -6.984375 3.425781 -7.140625 4.15625 -7.140625 C 4.894531 -7.140625 5.539062 -6.984375 6.09375 -6.671875 C 6.65625 -6.359375 7.097656 -5.925781 7.421875 -5.375 C 7.742188 -4.832031 7.90625 -4.207031 7.90625 -3.5 C 7.90625 -2.789062 7.742188 -2.160156 7.421875 -1.609375 C 7.097656 -1.066406 6.65625 -0.640625 6.09375 -0.328125 C 5.539062 -0.015625 4.894531 0.140625 4.15625 0.140625 Z M 2.046875 -3.5 C 2.046875 -3.082031 2.132812 -2.710938 2.3125 -2.390625 C 2.5 -2.066406 2.75 -1.816406 3.0625 -1.640625 C 3.382812 -1.460938 3.75 -1.375 4.15625 -1.375 C 4.582031 -1.375 4.953125 -1.460938 5.265625 -1.640625 C 5.578125 -1.816406 5.820312 -2.066406 6 -2.390625 C 6.175781 -2.710938 6.265625 -3.082031 6.265625 -3.5 C 6.265625 -3.914062 6.175781 -4.285156 6 -4.609375 C 5.820312 -4.929688 5.578125 -5.179688 5.265625 -5.359375 C 4.953125 -5.535156 4.582031 -5.625 4.15625 -5.625 C 3.75 -5.625 3.382812 -5.535156 3.0625 -5.359375 C 2.75 -5.179688 2.5 -4.929688 2.3125 -4.609375 C 2.132812 -4.285156 2.046875 -3.914062 2.046875 -3.5 Z M 2.046875 -3.5 "/></g></g></g><g fill="#ef1b8b" fill-opacity="0.4"><g transform="translate(176.056175, 278.721982)"><g><path d="M 2.78125 0 L 0.09375 -7 L 1.796875 -7 L 2.734375 -4.515625 L 3.5625 -2.296875 L 5.328125 -7 L 7.03125 -7 L 4.34375 0 Z M 2.78125 0 "/></g></g></g><g fill="#ef1b8b" fill-opacity="0.4"><g transform="translate(183.17337, 278.721982)"><g><path d="M 0.84375 0 L 0.84375 -7 L 5.4375 -7 L 5.4375 -5.65625 L 2.421875 -5.65625 L 2.421875 -4.203125 L 5.171875 -4.203125 L 5.171875 -2.875 L 2.421875 -2.875 L 2.421875 -1.34375 L 5.546875 -1.34375 L 5.546875 0 Z M 0.84375 0 "/></g></g></g><g fill="#ef1b8b" fill-opacity="0.4"><g transform="translate(189.230979, 278.721982)"><g/></g></g><g fill="#ef1b8b" fill-opacity="0.4"><g transform="translate(191.58005, 278.721982)"><g><path d="M 2.515625 0 L 2.515625 -5.515625 L 0.296875 -5.515625 L 0.296875 -7 L 6.328125 -7 L 6.328125 -5.515625 L 4.109375 -5.515625 L 4.109375 0 Z M 2.515625 0 "/></g></g></g><g fill="#ef1b8b" fill-opacity="0.4"><g transform="translate(198.207438, 278.721982)"><g><path d="M 5.171875 0 L 5.171875 -2.8125 L 2.4375 -2.8125 L 2.4375 0 L 0.84375 0 L 0.84375 -7 L 2.4375 -7 L 2.4375 -4.3125 L 5.171875 -4.3125 L 5.171875 -7 L 6.765625 -7 L 6.765625 0 Z M 5.171875 0 "/></g></g></g><g fill="#ef1b8b" fill-opacity="0.4"><g transform="translate(205.804437, 278.721982)"><g><path d="M 0.84375 0 L 0.84375 -7 L 3.828125 -7 C 4.359375 -7 4.820312 -6.898438 5.21875 -6.703125 C 5.613281 -6.515625 5.914062 -6.238281 6.125 -5.875 C 6.34375 -5.519531 6.453125 -5.09375 6.453125 -4.59375 C 6.453125 -4.070312 6.332031 -3.625 6.09375 -3.25 C 5.863281 -2.882812 5.539062 -2.613281 5.125 -2.4375 L 6.5625 0 L 4.734375 0 L 3.484375 -2.1875 L 2.4375 -2.1875 L 2.4375 0 Z M 2.40625 -3.515625 L 3.625 -3.515625 C 4.007812 -3.515625 4.304688 -3.601562 4.515625 -3.78125 C 4.734375 -3.96875 4.84375 -4.234375 4.84375 -4.578125 C 4.84375 -4.921875 4.734375 -5.179688 4.515625 -5.359375 C 4.304688 -5.546875 4.007812 -5.640625 3.625 -5.640625 L 2.40625 -5.640625 Z M 2.40625 -3.515625 "/></g></g></g><g fill="#ef1b8b" fill-opacity="0.4"><g transform="translate(212.841661, 278.721982)"><g><path d="M 4.15625 0.140625 C 3.425781 0.140625 2.78125 -0.015625 2.21875 -0.328125 C 1.65625 -0.640625 1.21875 -1.066406 0.90625 -1.609375 C 0.59375 -2.160156 0.4375 -2.789062 0.4375 -3.5 C 0.4375 -4.207031 0.59375 -4.832031 0.90625 -5.375 C 1.21875 -5.925781 1.65625 -6.359375 2.21875 -6.671875 C 2.78125 -6.984375 3.425781 -7.140625 4.15625 -7.140625 C 4.894531 -7.140625 5.539062 -6.984375 6.09375 -6.671875 C 6.65625 -6.359375 7.097656 -5.925781 7.421875 -5.375 C 7.742188 -4.832031 7.90625 -4.207031 7.90625 -3.5 C 7.90625 -2.789062 7.742188 -2.160156 7.421875 -1.609375 C 7.097656 -1.066406 6.65625 -0.640625 6.09375 -0.328125 C 5.539062 -0.015625 4.894531 0.140625 4.15625 0.140625 Z M 2.046875 -3.5 C 2.046875 -3.082031 2.132812 -2.710938 2.3125 -2.390625 C 2.5 -2.066406 2.75 -1.816406 3.0625 -1.640625 C 3.382812 -1.460938 3.75 -1.375 4.15625 -1.375 C 4.582031 -1.375 4.953125 -1.460938 5.265625 -1.640625 C 5.578125 -1.816406 5.820312 -2.066406 6 -2.390625 C 6.175781 -2.710938 6.265625 -3.082031 6.265625 -3.5 C 6.265625 -3.914062 6.175781 -4.285156 6 -4.609375 C 5.820312 -4.929688 5.578125 -5.179688 5.265625 -5.359375 C 4.953125 -5.535156 4.582031 -5.625 4.15625 -5.625 C 3.75 -5.625 3.382812 -5.535156 3.0625 -5.359375 C 2.75 -5.179688 2.5 -4.929688 2.3125 -4.609375 C 2.132812 -4.285156 2.046875 -3.914062 2.046875 -3.5 Z M 2.046875 -3.5 "/></g></g></g><g fill="#ef1b8b" fill-opacity="0.4"><g transform="translate(221.16837, 278.721982)"><g><path d="M 3.703125 0.140625 C 3.097656 0.140625 2.578125 0.0195312 2.140625 -0.21875 C 1.703125 -0.46875 1.363281 -0.816406 1.125 -1.265625 C 0.882812 -1.710938 0.765625 -2.25 0.765625 -2.875 L 0.765625 -7 L 2.359375 -7 L 2.359375 -2.984375 C 2.359375 -1.910156 2.804688 -1.375 3.703125 -1.375 C 4.597656 -1.375 5.046875 -1.910156 5.046875 -2.984375 L 5.046875 -7 L 6.625 -7 L 6.625 -2.875 C 6.625 -2.25 6.503906 -1.710938 6.265625 -1.265625 C 6.035156 -0.816406 5.703125 -0.46875 5.265625 -0.21875 C 4.828125 0.0195312 4.304688 0.140625 3.703125 0.140625 Z M 3.703125 0.140625 "/></g></g></g><g fill="#ef1b8b" fill-opacity="0.4"><g transform="translate(228.565453, 278.721982)"><g><path d="M 4.09375 0.140625 C 3.382812 0.140625 2.753906 -0.015625 2.203125 -0.328125 C 1.648438 -0.640625 1.21875 -1.066406 0.90625 -1.609375 C 0.59375 -2.160156 0.4375 -2.789062 0.4375 -3.5 C 0.4375 -4.207031 0.585938 -4.832031 0.890625 -5.375 C 1.203125 -5.925781 1.632812 -6.359375 2.1875 -6.671875 C 2.738281 -6.984375 3.363281 -7.140625 4.0625 -7.140625 C 4.632812 -7.140625 5.160156 -7.039062 5.640625 -6.84375 C 6.117188 -6.644531 6.523438 -6.363281 6.859375 -6 C 7.203125 -5.632812 7.441406 -5.203125 7.578125 -4.703125 L 5.875 -4.703125 C 5.707031 -5.015625 5.46875 -5.253906 5.15625 -5.421875 C 4.84375 -5.597656 4.488281 -5.6875 4.09375 -5.6875 C 3.6875 -5.6875 3.328125 -5.59375 3.015625 -5.40625 C 2.703125 -5.21875 2.457031 -4.957031 2.28125 -4.625 C 2.101562 -4.300781 2.015625 -3.925781 2.015625 -3.5 C 2.015625 -3.082031 2.101562 -2.707031 2.28125 -2.375 C 2.457031 -2.050781 2.703125 -1.789062 3.015625 -1.59375 C 3.328125 -1.40625 3.695312 -1.3125 4.125 -1.3125 C 4.632812 -1.3125 5.054688 -1.441406 5.390625 -1.703125 C 5.734375 -1.960938 5.957031 -2.304688 6.0625 -2.734375 L 3.796875 -2.734375 L 3.796875 -3.96875 L 7.734375 -3.96875 C 7.773438 -3.363281 7.71875 -2.8125 7.5625 -2.3125 C 7.40625 -1.8125 7.164062 -1.375 6.84375 -1 C 6.519531 -0.632812 6.125 -0.351562 5.65625 -0.15625 C 5.195312 0.0390625 4.675781 0.140625 4.09375 0.140625 Z M 4.09375 0.140625 "/></g></g></g><g fill="#ef1b8b" fill-opacity="0.4"><g transform="translate(236.72224, 278.721982)"><g><path d="M 5.171875 0 L 5.171875 -2.8125 L 2.4375 -2.8125 L 2.4375 0 L 0.84375 0 L 0.84375 -7 L 2.4375 -7 L 2.4375 -4.3125 L 5.171875 -4.3125 L 5.171875 -7 L 6.765625 -7 L 6.765625 0 Z M 5.171875 0 "/></g></g></g><g fill="#ef1b8b" fill-opacity="0.4"><g transform="translate(244.31924, 278.721982)"><g/></g></g><g fill="#ef1b8b" fill-opacity="0.4"><g transform="translate(246.668311, 278.721982)"><g><path d="M 0.84375 0 L 0.84375 -7 L 2.1875 -7 L 5.28125 -2.734375 L 5.28125 -7 L 6.859375 -7 L 6.859375 0 L 5.515625 0 L 2.421875 -4.296875 L 2.421875 0 Z M 0.84375 0 "/></g></g></g><g fill="#ef1b8b" fill-opacity="0.4"><g transform="translate(254.365275, 278.721982)"><g><path d="M 4.15625 0.140625 C 3.425781 0.140625 2.78125 -0.015625 2.21875 -0.328125 C 1.65625 -0.640625 1.21875 -1.066406 0.90625 -1.609375 C 0.59375 -2.160156 0.4375 -2.789062 0.4375 -3.5 C 0.4375 -4.207031 0.59375 -4.832031 0.90625 -5.375 C 1.21875 -5.925781 1.65625 -6.359375 2.21875 -6.671875 C 2.78125 -6.984375 3.425781 -7.140625 4.15625 -7.140625 C 4.894531 -7.140625 5.539062 -6.984375 6.09375 -6.671875 C 6.65625 -6.359375 7.097656 -5.925781 7.421875 -5.375 C 7.742188 -4.832031 7.90625 -4.207031 7.90625 -3.5 C 7.90625 -2.789062 7.742188 -2.160156 7.421875 -1.609375 C 7.097656 -1.066406 6.65625 -0.640625 6.09375 -0.328125 C 5.539062 -0.015625 4.894531 0.140625 4.15625 0.140625 Z M 2.046875 -3.5 C 2.046875 -3.082031 2.132812 -2.710938 2.3125 -2.390625 C 2.5 -2.066406 2.75 -1.816406 3.0625 -1.640625 C 3.382812 -1.460938 3.75 -1.375 4.15625 -1.375 C 4.582031 -1.375 4.953125 -1.460938 5.265625 -1.640625 C 5.578125 -1.816406 5.820312 -2.066406 6 -2.390625 C 6.175781 -2.710938 6.265625 -3.082031 6.265625 -3.5 C 6.265625 -3.914062 6.175781 -4.285156 6 -4.609375 C 5.820312 -4.929688 5.578125 -5.179688 5.265625 -5.359375 C 4.953125 -5.535156 4.582031 -5.625 4.15625 -5.625 C 3.75 -5.625 3.382812 -5.535156 3.0625 -5.359375 C 2.75 -5.179688 2.5 -4.929688 2.3125 -4.609375 C 2.132812 -4.285156 2.046875 -3.914062 2.046875 -3.5 Z M 2.046875 -3.5 "/></g></g></g><g fill="#ef1b8b" fill-opacity="0.4"><g transform="translate(262.691984, 278.721982)"><g><path d="M 2.515625 0 L 2.515625 -5.515625 L 0.296875 -5.515625 L 0.296875 -7 L 6.328125 -7 L 6.328125 -5.515625 L 4.109375 -5.515625 L 4.109375 0 Z M 2.515625 0 "/></g></g></g><g fill="#ef1b8b" fill-opacity="0.4"><g transform="translate(269.319371, 278.721982)"><g><path d="M 0.84375 0 L 0.84375 -7 L 5.4375 -7 L 5.4375 -5.65625 L 2.421875 -5.65625 L 2.421875 -4.203125 L 5.171875 -4.203125 L 5.171875 -2.875 L 2.421875 -2.875 L 2.421875 -1.34375 L 5.546875 -1.34375 L 5.546875 0 Z M 0.84375 0 "/></g></g></g><g fill="#ef1b8b" fill-opacity="0.4"><g transform="translate(275.376981, 278.721982)"><g><path d="M 3.28125 0.140625 C 2.695312 0.140625 2.191406 0.046875 1.765625 -0.140625 C 1.335938 -0.335938 1.007812 -0.613281 0.78125 -0.96875 C 0.550781 -1.332031 0.4375 -1.753906 0.4375 -2.234375 L 2 -2.234375 C 2 -1.898438 2.113281 -1.640625 2.34375 -1.453125 C 2.570312 -1.265625 2.878906 -1.171875 3.265625 -1.171875 C 3.597656 -1.171875 3.859375 -1.234375 4.046875 -1.359375 C 4.242188 -1.492188 4.34375 -1.675781 4.34375 -1.90625 C 4.34375 -2.15625 4.226562 -2.351562 4 -2.5 C 3.769531 -2.65625 3.40625 -2.789062 2.90625 -2.90625 C 2.09375 -3.070312 1.488281 -3.332031 1.09375 -3.6875 C 0.695312 -4.039062 0.5 -4.5 0.5 -5.0625 C 0.5 -5.707031 0.734375 -6.210938 1.203125 -6.578125 C 1.671875 -6.953125 2.304688 -7.140625 3.109375 -7.140625 C 3.660156 -7.140625 4.140625 -7.039062 4.546875 -6.84375 C 4.953125 -6.65625 5.265625 -6.390625 5.484375 -6.046875 C 5.710938 -5.710938 5.828125 -5.304688 5.828125 -4.828125 L 4.296875 -4.828125 C 4.296875 -5.140625 4.191406 -5.382812 3.984375 -5.5625 C 3.785156 -5.75 3.5 -5.84375 3.125 -5.84375 C 2.789062 -5.84375 2.523438 -5.773438 2.328125 -5.640625 C 2.140625 -5.515625 2.046875 -5.332031 2.046875 -5.09375 C 2.046875 -4.882812 2.148438 -4.707031 2.359375 -4.5625 C 2.578125 -4.414062 2.953125 -4.28125 3.484375 -4.15625 C 4.359375 -3.945312 4.988281 -3.664062 5.375 -3.3125 C 5.757812 -2.96875 5.953125 -2.519531 5.953125 -1.96875 C 5.953125 -1.3125 5.710938 -0.796875 5.234375 -0.421875 C 4.765625 -0.046875 4.113281 0.140625 3.28125 0.140625 Z M 3.28125 0.140625 "/></g></g></g><g fill="#004aad" fill-opacity="1"><g transform="translate(93.198896, 278.721982)"><g><path d="M 3.28125 0.140625 C 2.695312 0.140625 2.191406 0.046875 1.765625 -0.140625 C 1.335938 -0.335938 1.007812 -0.613281 0.78125 -0.96875 C 0.550781 -1.332031 0.4375 -1.753906 0.4375 -2.234375 L 2 -2.234375 C 2 -1.898438 2.113281 -1.640625 2.34375 -1.453125 C 2.570312 -1.265625 2.878906 -1.171875 3.265625 -1.171875 C 3.597656 -1.171875 3.859375 -1.234375 4.046875 -1.359375 C 4.242188 -1.492188 4.34375 -1.675781 4.34375 -1.90625 C 4.34375 -2.15625 4.226562 -2.351562 4 -2.5 C 3.769531 -2.65625 3.40625 -2.789062 2.90625 -2.90625 C 2.09375 -3.070312 1.488281 -3.332031 1.09375 -3.6875 C 0.695312 -4.039062 0.5 -4.5 0.5 -5.0625 C 0.5 -5.707031 0.734375 -6.210938 1.203125 -6.578125 C 1.671875 -6.953125 2.304688 -7.140625 3.109375 -7.140625 C 3.660156 -7.140625 4.140625 -7.039062 4.546875 -6.84375 C 4.953125 -6.65625 5.265625 -6.390625 5.484375 -6.046875 C 5.710938 -5.710938 5.828125 -5.304688 5.828125 -4.828125 L 4.296875 -4.828125 C 4.296875 -5.140625 4.191406 -5.382812 3.984375 -5.5625 C 3.785156 -5.75 3.5 -5.84375 3.125 -5.84375 C 2.789062 -5.84375 2.523438 -5.773438 2.328125 -5.640625 C 2.140625 -5.515625 2.046875 -5.332031 2.046875 -5.09375 C 2.046875 -4.882812 2.148438 -4.707031 2.359375 -4.5625 C 2.578125 -4.414062 2.953125 -4.28125 3.484375 -4.15625 C 4.359375 -3.945312 4.988281 -3.664062 5.375 -3.3125 C 5.757812 -2.96875 5.953125 -2.519531 5.953125 -1.96875 C 5.953125 -1.3125 5.710938 -0.796875 5.234375 -0.421875 C 4.765625 -0.046875 4.113281 0.140625 3.28125 0.140625 Z M 3.28125 0.140625 "/></g></g></g><g fill="#004aad" fill-opacity="1"><g transform="translate(99.606362, 278.721982)"><g><path d="M 5.171875 0 L 5.171875 -2.8125 L 2.4375 -2.8125 L 2.4375 0 L 0.84375 0 L 0.84375 -7 L 2.4375 -7 L 2.4375 -4.3125 L 5.171875 -4.3125 L 5.171875 -7 L 6.765625 -7 L 6.765625 0 Z M 5.171875 0 "/></g></g></g><g fill="#004aad" fill-opacity="1"><g transform="translate(107.203362, 278.721982)"><g><path d="M 0.09375 0 L 2.875 -7 L 4.4375 -7 L 7.203125 0 L 5.515625 0 L 5.046875 -1.203125 L 2.265625 -1.203125 L 1.796875 0 Z M 2.671875 -2.453125 L 4.640625 -2.453125 L 3.65625 -5.015625 Z M 2.671875 -2.453125 "/></g></g></g><g fill="#004aad" fill-opacity="1"><g transform="translate(114.500481, 278.721982)"><g><path d="M 0.84375 0 L 0.84375 -7 L 3.828125 -7 C 4.359375 -7 4.820312 -6.898438 5.21875 -6.703125 C 5.613281 -6.515625 5.914062 -6.238281 6.125 -5.875 C 6.34375 -5.519531 6.453125 -5.09375 6.453125 -4.59375 C 6.453125 -4.070312 6.332031 -3.625 6.09375 -3.25 C 5.863281 -2.882812 5.539062 -2.613281 5.125 -2.4375 L 6.5625 0 L 4.734375 0 L 3.484375 -2.1875 L 2.4375 -2.1875 L 2.4375 0 Z M 2.40625 -3.515625 L 3.625 -3.515625 C 4.007812 -3.515625 4.304688 -3.601562 4.515625 -3.78125 C 4.734375 -3.96875 4.84375 -4.234375 4.84375 -4.578125 C 4.84375 -4.921875 4.734375 -5.179688 4.515625 -5.359375 C 4.304688 -5.546875 4.007812 -5.640625 3.625 -5.640625 L 2.40625 -5.640625 Z M 2.40625 -3.515625 "/></g></g></g><g fill="#004aad" fill-opacity="1"><g transform="translate(121.537704, 278.721982)"><g><path d="M 0.84375 0 L 0.84375 -7 L 5.4375 -7 L 5.4375 -5.65625 L 2.421875 -5.65625 L 2.421875 -4.203125 L 5.171875 -4.203125 L 5.171875 -2.875 L 2.421875 -2.875 L 2.421875 -1.34375 L 5.546875 -1.34375 L 5.546875 0 Z M 0.84375 0 "/></g></g></g><g fill="#004aad" fill-opacity="1"><g transform="translate(127.595313, 278.721982)"><g/></g></g><g fill="#004aad" fill-opacity="1"><g transform="translate(129.944384, 278.721982)"><g><path d="M 2.671875 0 L 2.671875 -2.453125 L 0.09375 -7 L 1.90625 -7 L 2.765625 -5.375 L 3.46875 -4.109375 L 4.15625 -5.375 L 5.015625 -7 L 6.828125 -7 L 4.265625 -2.46875 L 4.265625 0 Z M 2.671875 0 "/></g></g></g><g fill="#004aad" fill-opacity="1"><g transform="translate(136.861651, 278.721982)"><g><path d="M 4.15625 0.140625 C 3.425781 0.140625 2.78125 -0.015625 2.21875 -0.328125 C 1.65625 -0.640625 1.21875 -1.066406 0.90625 -1.609375 C 0.59375 -2.160156 0.4375 -2.789062 0.4375 -3.5 C 0.4375 -4.207031 0.59375 -4.832031 0.90625 -5.375 C 1.21875 -5.925781 1.65625 -6.359375 2.21875 -6.671875 C 2.78125 -6.984375 3.425781 -7.140625 4.15625 -7.140625 C 4.894531 -7.140625 5.539062 -6.984375 6.09375 -6.671875 C 6.65625 -6.359375 7.097656 -5.925781 7.421875 -5.375 C 7.742188 -4.832031 7.90625 -4.207031 7.90625 -3.5 C 7.90625 -2.789062 7.742188 -2.160156 7.421875 -1.609375 C 7.097656 -1.066406 6.65625 -0.640625 6.09375 -0.328125 C 5.539062 -0.015625 4.894531 0.140625 4.15625 0.140625 Z M 2.046875 -3.5 C 2.046875 -3.082031 2.132812 -2.710938 2.3125 -2.390625 C 2.5 -2.066406 2.75 -1.816406 3.0625 -1.640625 C 3.382812 -1.460938 3.75 -1.375 4.15625 -1.375 C 4.582031 -1.375 4.953125 -1.460938 5.265625 -1.640625 C 5.578125 -1.816406 5.820312 -2.066406 6 -2.390625 C 6.175781 -2.710938 6.265625 -3.082031 6.265625 -3.5 C 6.265625 -3.914062 6.175781 -4.285156 6 -4.609375 C 5.820312 -4.929688 5.578125 -5.179688 5.265625 -5.359375 C 4.953125 -5.535156 4.582031 -5.625 4.15625 -5.625 C 3.75 -5.625 3.382812 -5.535156 3.0625 -5.359375 C 2.75 -5.179688 2.5 -4.929688 2.3125 -4.609375 C 2.132812 -4.285156 2.046875 -3.914062 2.046875 -3.5 Z M 2.046875 -3.5 "/></g></g></g><g fill="#004aad" fill-opacity="1"><g transform="translate(145.18836, 278.721982)"><g><path d="M 3.703125 0.140625 C 3.097656 0.140625 2.578125 0.0195312 2.140625 -0.21875 C 1.703125 -0.46875 1.363281 -0.816406 1.125 -1.265625 C 0.882812 -1.710938 0.765625 -2.25 0.765625 -2.875 L 0.765625 -7 L 2.359375 -7 L 2.359375 -2.984375 C 2.359375 -1.910156 2.804688 -1.375 3.703125 -1.375 C 4.597656 -1.375 5.046875 -1.910156 5.046875 -2.984375 L 5.046875 -7 L 6.625 -7 L 6.625 -2.875 C 6.625 -2.25 6.503906 -1.710938 6.265625 -1.265625 C 6.035156 -0.816406 5.703125 -0.46875 5.265625 -0.21875 C 4.828125 0.0195312 4.304688 0.140625 3.703125 0.140625 Z M 3.703125 0.140625 "/></g></g></g><g fill="#004aad" fill-opacity="1"><g transform="translate(152.585443, 278.721982)"><g><path d="M 0.84375 0 L 0.84375 -7 L 3.828125 -7 C 4.359375 -7 4.820312 -6.898438 5.21875 -6.703125 C 5.613281 -6.515625 5.914062 -6.238281 6.125 -5.875 C 6.34375 -5.519531 6.453125 -5.09375 6.453125 -4.59375 C 6.453125 -4.070312 6.332031 -3.625 6.09375 -3.25 C 5.863281 -2.882812 5.539062 -2.613281 5.125 -2.4375 L 6.5625 0 L 4.734375 0 L 3.484375 -2.1875 L 2.4375 -2.1875 L 2.4375 0 Z M 2.40625 -3.515625 L 3.625 -3.515625 C 4.007812 -3.515625 4.304688 -3.601562 4.515625 -3.78125 C 4.734375 -3.96875 4.84375 -4.234375 4.84375 -4.578125 C 4.84375 -4.921875 4.734375 -5.179688 4.515625 -5.359375 C 4.304688 -5.546875 4.007812 -5.640625 3.625 -5.640625 L 2.40625 -5.640625 Z M 2.40625 -3.515625 "/></g></g></g><g fill="#004aad" fill-opacity="1"><g transform="translate(159.622666, 278.721982)"><g/></g></g><g fill="#004aad" fill-opacity="1"><g transform="translate(161.971738, 278.721982)"><g><path d="M 0.84375 0 L 0.84375 -7 L 2.4375 -7 L 2.4375 -1.484375 L 5.484375 -1.484375 L 5.484375 0 Z M 0.84375 0 "/></g></g></g><g fill="#004aad" fill-opacity="1"><g transform="translate(167.729466, 278.721982)"><g><path d="M 4.15625 0.140625 C 3.425781 0.140625 2.78125 -0.015625 2.21875 -0.328125 C 1.65625 -0.640625 1.21875 -1.066406 0.90625 -1.609375 C 0.59375 -2.160156 0.4375 -2.789062 0.4375 -3.5 C 0.4375 -4.207031 0.59375 -4.832031 0.90625 -5.375 C 1.21875 -5.925781 1.65625 -6.359375 2.21875 -6.671875 C 2.78125 -6.984375 3.425781 -7.140625 4.15625 -7.140625 C 4.894531 -7.140625 5.539062 -6.984375 6.09375 -6.671875 C 6.65625 -6.359375 7.097656 -5.925781 7.421875 -5.375 C 7.742188 -4.832031 7.90625 -4.207031 7.90625 -3.5 C 7.90625 -2.789062 7.742188 -2.160156 7.421875 -1.609375 C 7.097656 -1.066406 6.65625 -0.640625 6.09375 -0.328125 C 5.539062 -0.015625 4.894531 0.140625 4.15625 0.140625 Z M 2.046875 -3.5 C 2.046875 -3.082031 2.132812 -2.710938 2.3125 -2.390625 C 2.5 -2.066406 2.75 -1.816406 3.0625 -1.640625 C 3.382812 -1.460938 3.75 -1.375 4.15625 -1.375 C 4.582031 -1.375 4.953125 -1.460938 5.265625 -1.640625 C 5.578125 -1.816406 5.820312 -2.066406 6 -2.390625 C 6.175781 -2.710938 6.265625 -3.082031 6.265625 -3.5 C 6.265625 -3.914062 6.175781 -4.285156 6 -4.609375 C 5.820312 -4.929688 5.578125 -5.179688 5.265625 -5.359375 C 4.953125 -5.535156 4.582031 -5.625 4.15625 -5.625 C 3.75 -5.625 3.382812 -5.535156 3.0625 -5.359375 C 2.75 -5.179688 2.5 -4.929688 2.3125 -4.609375 C 2.132812 -4.285156 2.046875 -3.914062 2.046875 -3.5 Z M 2.046875 -3.5 "/></g></g></g><g fill="#004aad" fill-opacity="1"><g transform="translate(176.056175, 278.721982)"><g><path d="M 2.78125 0 L 0.09375 -7 L 1.796875 -7 L 2.734375 -4.515625 L 3.5625 -2.296875 L 5.328125 -7 L 7.03125 -7 L 4.34375 0 Z M 2.78125 0 "/></g></g></g><g fill="#004aad" fill-opacity="1"><g transform="translate(183.17337, 278.721982)"><g><path d="M 0.84375 0 L 0.84375 -7 L 5.4375 -7 L 5.4375 -5.65625 L 2.421875 -5.65625 L 2.421875 -4.203125 L 5.171875 -4.203125 L 5.171875 -2.875 L 2.421875 -2.875 L 2.421875 -1.34375 L 5.546875 -1.34375 L 5.546875 0 Z M 0.84375 0 "/></g></g></g><g fill="#004aad" fill-opacity="1"><g transform="translate(189.230979, 278.721982)"><g/></g></g><g fill="#004aad" fill-opacity="1"><g transform="translate(191.58005, 278.721982)"><g><path d="M 2.515625 0 L 2.515625 -5.515625 L 0.296875 -5.515625 L 0.296875 -7 L 6.328125 -7 L 6.328125 -5.515625 L 4.109375 -5.515625 L 4.109375 0 Z M 2.515625 0 "/></g></g></g><g fill="#004aad" fill-opacity="1"><g transform="translate(198.207438, 278.721982)"><g><path d="M 5.171875 0 L 5.171875 -2.8125 L 2.4375 -2.8125 L 2.4375 0 L 0.84375 0 L 0.84375 -7 L 2.4375 -7 L 2.4375 -4.3125 L 5.171875 -4.3125 L 5.171875 -7 L 6.765625 -7 L 6.765625 0 Z M 5.171875 0 "/></g></g></g><g fill="#004aad" fill-opacity="1"><g transform="translate(205.804437, 278.721982)"><g><path d="M 0.84375 0 L 0.84375 -7 L 3.828125 -7 C 4.359375 -7 4.820312 -6.898438 5.21875 -6.703125 C 5.613281 -6.515625 5.914062 -6.238281 6.125 -5.875 C 6.34375 -5.519531 6.453125 -5.09375 6.453125 -4.59375 C 6.453125 -4.070312 6.332031 -3.625 6.09375 -3.25 C 5.863281 -2.882812 5.539062 -2.613281 5.125 -2.4375 L 6.5625 0 L 4.734375 0 L 3.484375 -2.1875 L 2.4375 -2.1875 L 2.4375 0 Z M 2.40625 -3.515625 L 3.625 -3.515625 C 4.007812 -3.515625 4.304688 -3.601562 4.515625 -3.78125 C 4.734375 -3.96875 4.84375 -4.234375 4.84375 -4.578125 C 4.84375 -4.921875 4.734375 -5.179688 4.515625 -5.359375 C 4.304688 -5.546875 4.007812 -5.640625 3.625 -5.640625 L 2.40625 -5.640625 Z M 2.40625 -3.515625 "/></g></g></g><g fill="#004aad" fill-opacity="1"><g transform="translate(212.841661, 278.721982)"><g><path d="M 4.15625 0.140625 C 3.425781 0.140625 2.78125 -0.015625 2.21875 -0.328125 C 1.65625 -0.640625 1.21875 -1.066406 0.90625 -1.609375 C 0.59375 -2.160156 0.4375 -2.789062 0.4375 -3.5 C 0.4375 -4.207031 0.59375 -4.832031 0.90625 -5.375 C 1.21875 -5.925781 1.65625 -6.359375 2.21875 -6.671875 C 2.78125 -6.984375 3.425781 -7.140625 4.15625 -7.140625 C 4.894531 -7.140625 5.539062 -6.984375 6.09375 -6.671875 C 6.65625 -6.359375 7.097656 -5.925781 7.421875 -5.375 C 7.742188 -4.832031 7.90625 -4.207031 7.90625 -3.5 C 7.90625 -2.789062 7.742188 -2.160156 7.421875 -1.609375 C 7.097656 -1.066406 6.65625 -0.640625 6.09375 -0.328125 C 5.539062 -0.015625 4.894531 0.140625 4.15625 0.140625 Z M 2.046875 -3.5 C 2.046875 -3.082031 2.132812 -2.710938 2.3125 -2.390625 C 2.5 -2.066406 2.75 -1.816406 3.0625 -1.640625 C 3.382812 -1.460938 3.75 -1.375 4.15625 -1.375 C 4.582031 -1.375 4.953125 -1.460938 5.265625 -1.640625 C 5.578125 -1.816406 5.820312 -2.066406 6 -2.390625 C 6.175781 -2.710938 6.265625 -3.082031 6.265625 -3.5 C 6.265625 -3.914062 6.175781 -4.285156 6 -4.609375 C 5.820312 -4.929688 5.578125 -5.179688 5.265625 -5.359375 C 4.953125 -5.535156 4.582031 -5.625 4.15625 -5.625 C 3.75 -5.625 3.382812 -5.535156 3.0625 -5.359375 C 2.75 -5.179688 2.5 -4.929688 2.3125 -4.609375 C 2.132812 -4.285156 2.046875 -3.914062 2.046875 -3.5 Z M 2.046875 -3.5 "/></g></g></g><g fill="#004aad" fill-opacity="1"><g transform="translate(221.16837, 278.721982)"><g><path d="M 3.703125 0.140625 C 3.097656 0.140625 2.578125 0.0195312 2.140625 -0.21875 C 1.703125 -0.46875 1.363281 -0.816406 1.125 -1.265625 C 0.882812 -1.710938 0.765625 -2.25 0.765625 -2.875 L 0.765625 -7 L 2.359375 -7 L 2.359375 -2.984375 C 2.359375 -1.910156 2.804688 -1.375 3.703125 -1.375 C 4.597656 -1.375 5.046875 -1.910156 5.046875 -2.984375 L 5.046875 -7 L 6.625 -7 L 6.625 -2.875 C 6.625 -2.25 6.503906 -1.710938 6.265625 -1.265625 C 6.035156 -0.816406 5.703125 -0.46875 5.265625 -0.21875 C 4.828125 0.0195312 4.304688 0.140625 3.703125 0.140625 Z M 3.703125 0.140625 "/></g></g></g><g fill="#004aad" fill-opacity="1"><g transform="translate(228.565453, 278.721982)"><g><path d="M 4.09375 0.140625 C 3.382812 0.140625 2.753906 -0.015625 2.203125 -0.328125 C 1.648438 -0.640625 1.21875 -1.066406 0.90625 -1.609375 C 0.59375 -2.160156 0.4375 -2.789062 0.4375 -3.5 C 0.4375 -4.207031 0.585938 -4.832031 0.890625 -5.375 C 1.203125 -5.925781 1.632812 -6.359375 2.1875 -6.671875 C 2.738281 -6.984375 3.363281 -7.140625 4.0625 -7.140625 C 4.632812 -7.140625 5.160156 -7.039062 5.640625 -6.84375 C 6.117188 -6.644531 6.523438 -6.363281 6.859375 -6 C 7.203125 -5.632812 7.441406 -5.203125 7.578125 -4.703125 L 5.875 -4.703125 C 5.707031 -5.015625 5.46875 -5.253906 5.15625 -5.421875 C 4.84375 -5.597656 4.488281 -5.6875 4.09375 -5.6875 C 3.6875 -5.6875 3.328125 -5.59375 3.015625 -5.40625 C 2.703125 -5.21875 2.457031 -4.957031 2.28125 -4.625 C 2.101562 -4.300781 2.015625 -3.925781 2.015625 -3.5 C 2.015625 -3.082031 2.101562 -2.707031 2.28125 -2.375 C 2.457031 -2.050781 2.703125 -1.789062 3.015625 -1.59375 C 3.328125 -1.40625 3.695312 -1.3125 4.125 -1.3125 C 4.632812 -1.3125 5.054688 -1.441406 5.390625 -1.703125 C 5.734375 -1.960938 5.957031 -2.304688 6.0625 -2.734375 L 3.796875 -2.734375 L 3.796875 -3.96875 L 7.734375 -3.96875 C 7.773438 -3.363281 7.71875 -2.8125 7.5625 -2.3125 C 7.40625 -1.8125 7.164062 -1.375 6.84375 -1 C 6.519531 -0.632812 6.125 -0.351562 5.65625 -0.15625 C 5.195312 0.0390625 4.675781 0.140625 4.09375 0.140625 Z M 4.09375 0.140625 "/></g></g></g><g fill="#004aad" fill-opacity="1"><g transform="translate(236.72224, 278.721982)"><g><path d="M 5.171875 0 L 5.171875 -2.8125 L 2.4375 -2.8125 L 2.4375 0 L 0.84375 0 L 0.84375 -7 L 2.4375 -7 L 2.4375 -4.3125 L 5.171875 -4.3125 L 5.171875 -7 L 6.765625 -7 L 6.765625 0 Z M 5.171875 0 "/></g></g></g><g fill="#004aad" fill-opacity="1"><g transform="translate(244.31924, 278.721982)"><g/></g></g><g fill="#004aad" fill-opacity="1"><g transform="translate(246.668311, 278.721982)"><g><path d="M 0.84375 0 L 0.84375 -7 L 2.1875 -7 L 5.28125 -2.734375 L 5.28125 -7 L 6.859375 -7 L 6.859375 0 L 5.515625 0 L 2.421875 -4.296875 L 2.421875 0 Z M 0.84375 0 "/></g></g></g><g fill="#004aad" fill-opacity="1"><g transform="translate(254.365275, 278.721982)"><g><path d="M 4.15625 0.140625 C 3.425781 0.140625 2.78125 -0.015625 2.21875 -0.328125 C 1.65625 -0.640625 1.21875 -1.066406 0.90625 -1.609375 C 0.59375 -2.160156 0.4375 -2.789062 0.4375 -3.5 C 0.4375 -4.207031 0.59375 -4.832031 0.90625 -5.375 C 1.21875 -5.925781 1.65625 -6.359375 2.21875 -6.671875 C 2.78125 -6.984375 3.425781 -7.140625 4.15625 -7.140625 C 4.894531 -7.140625 5.539062 -6.984375 6.09375 -6.671875 C 6.65625 -6.359375 7.097656 -5.925781 7.421875 -5.375 C 7.742188 -4.832031 7.90625 -4.207031 7.90625 -3.5 C 7.90625 -2.789062 7.742188 -2.160156 7.421875 -1.609375 C 7.097656 -1.066406 6.65625 -0.640625 6.09375 -0.328125 C 5.539062 -0.015625 4.894531 0.140625 4.15625 0.140625 Z M 2.046875 -3.5 C 2.046875 -3.082031 2.132812 -2.710938 2.3125 -2.390625 C 2.5 -2.066406 2.75 -1.816406 3.0625 -1.640625 C 3.382812 -1.460938 3.75 -1.375 4.15625 -1.375 C 4.582031 -1.375 4.953125 -1.460938 5.265625 -1.640625 C 5.578125 -1.816406 5.820312 -2.066406 6 -2.390625 C 6.175781 -2.710938 6.265625 -3.082031 6.265625 -3.5 C 6.265625 -3.914062 6.175781 -4.285156 6 -4.609375 C 5.820312 -4.929688 5.578125 -5.179688 5.265625 -5.359375 C 4.953125 -5.535156 4.582031 -5.625 4.15625 -5.625 C 3.75 -5.625 3.382812 -5.535156 3.0625 -5.359375 C 2.75 -5.179688 2.5 -4.929688 2.3125 -4.609375 C 2.132812 -4.285156 2.046875 -3.914062 2.046875 -3.5 Z M 2.046875 -3.5 "/></g></g></g><g fill="#004aad" fill-opacity="1"><g transform="translate(262.691984, 278.721982)"><g><path d="M 2.515625 0 L 2.515625 -5.515625 L 0.296875 -5.515625 L 0.296875 -7 L 6.328125 -7 L 6.328125 -5.515625 L 4.109375 -5.515625 L 4.109375 0 Z M 2.515625 0 "/></g></g></g><g fill="#004aad" fill-opacity="1"><g transform="translate(269.319371, 278.721982)"><g><path d="M 0.84375 0 L 0.84375 -7 L 5.4375 -7 L 5.4375 -5.65625 L 2.421875 -5.65625 L 2.421875 -4.203125 L 5.171875 -4.203125 L 5.171875 -2.875 L 2.421875 -2.875 L 2.421875 -1.34375 L 5.546875 -1.34375 L 5.546875 0 Z M 0.84375 0 "/></g></g></g><g fill="#004aad" fill-opacity="1"><g transform="translate(275.376981, 278.721982)"><g><path d="M 3.28125 0.140625 C 2.695312 0.140625 2.191406 0.046875 1.765625 -0.140625 C 1.335938 -0.335938 1.007812 -0.613281 0.78125 -0.96875 C 0.550781 -1.332031 0.4375 -1.753906 0.4375 -2.234375 L 2 -2.234375 C 2 -1.898438 2.113281 -1.640625 2.34375 -1.453125 C 2.570312 -1.265625 2.878906 -1.171875 3.265625 -1.171875 C 3.597656 -1.171875 3.859375 -1.234375 4.046875 -1.359375 C 4.242188 -1.492188 4.34375 -1.675781 4.34375 -1.90625 C 4.34375 -2.15625 4.226562 -2.351562 4 -2.5 C 3.769531 -2.65625 3.40625 -2.789062 2.90625 -2.90625 C 2.09375 -3.070312 1.488281 -3.332031 1.09375 -3.6875 C 0.695312 -4.039062 0.5 -4.5 0.5 -5.0625 C 0.5 -5.707031 0.734375 -6.210938 1.203125 -6.578125 C 1.671875 -6.953125 2.304688 -7.140625 3.109375 -7.140625 C 3.660156 -7.140625 4.140625 -7.039062 4.546875 -6.84375 C 4.953125 -6.65625 5.265625 -6.390625 5.484375 -6.046875 C 5.710938 -5.710938 5.828125 -5.304688 5.828125 -4.828125 L 4.296875 -4.828125 C 4.296875 -5.140625 4.191406 -5.382812 3.984375 -5.5625 C 3.785156 -5.75 3.5 -5.84375 3.125 -5.84375 C 2.789062 -5.84375 2.523438 -5.773438 2.328125 -5.640625 C 2.140625 -5.515625 2.046875 -5.332031 2.046875 -5.09375 C 2.046875 -4.882812 2.148438 -4.707031 2.359375 -4.5625 C 2.578125 -4.414062 2.953125 -4.28125 3.484375 -4.15625 C 4.359375 -3.945312 4.988281 -3.664062 5.375 -3.3125 C 5.757812 -2.96875 5.953125 -2.519531 5.953125 -1.96875 C 5.953125 -1.3125 5.710938 -0.796875 5.234375 -0.421875 C 4.765625 -0.046875 4.113281 0.140625 3.28125 0.140625 Z M 3.28125 0.140625 "/></g></g></g><path fill="#004aad" d="M 218.742188 125.328125 C 226.34375 121.234375 234.949219 119.53125 243.75 122.511719 C 258.054688 127.363281 262.492188 144.113281 256.488281 157.027344 C 252.996094 164.535156 247.050781 170.335938 240.875 175.667969 C 234.277344 181.367188 228.105469 188.054688 222.160156 194.476562 C 213.886719 203.40625 202.902344 214.613281 200.3125 226.925781 C 201.167969 222.828125 192.238281 216.601562 189.691406 214.5625 C 165.097656 194.832031 112.507812 176.546875 123.449219 135.671875 C 123.738281 134.578125 124.078125 133.503906 124.480469 132.4375 C 132.136719 111.726562 160.324219 99.574219 179.136719 113.882812 C 188.472656 120.980469 192.792969 131.875 198.324219 141.828125 C 198.453125 142.0625 206.46875 134.640625 206.996094 134.125 C 210.496094 130.707031 214.460938 127.636719 218.742188 125.328125 Z M 218.742188 125.328125 " fill-opacity="1" fill-rule="nonzero"/><g clip-path="url(#09f3444d2b)"><path fill="#000000" d="M 198.839844 141.84375 C 198.882812 138.792969 200.972656 136.007812 202.894531 133.792969 C 204.617188 131.8125 206.597656 130.070312 208.769531 128.59375 C 213.195312 125.597656 218.3125 123.6875 223.640625 123.222656 C 228.816406 122.773438 234.09375 123.667969 238.632812 126.25 C 243.117188 128.804688 246.578125 132.746094 248.996094 137.277344 C 251.414062 141.8125 252.765625 146.988281 253.15625 152.011719 C 253.578125 157.414062 253.011719 162.457031 251.386719 167.582031 C 249.613281 173.15625 246.679688 178.332031 243.132812 183.050781 C 241.492188 185.238281 239.507812 187.542969 237.5625 189.664062 C 235.546875 191.855469 233.457031 193.976562 231.335938 196.074219 C 229.195312 198.195312 227.03125 200.277344 224.882812 202.390625 C 222.640625 204.597656 220.398438 206.800781 218.4375 209.269531 C 214.234375 214.539062 211.046875 220.457031 208.464844 226.664062 C 207.839844 228.15625 207.265625 229.652344 206.757812 231.191406 C 206.511719 231.941406 207.039062 232.789062 207.773438 232.984375 C 208.601562 233.210938 209.277344 232.703125 209.566406 231.96875 C 210.824219 228.824219 211.984375 225.878906 213.480469 222.84375 C 214.96875 219.816406 216.644531 216.890625 218.566406 214.121094 C 222.132812 208.980469 226.851562 204.652344 231.34375 200.234375 C 235.675781 195.972656 239.96875 191.644531 243.757812 186.882812 C 247.609375 182.035156 250.929688 176.78125 253.082031 170.949219 C 255.050781 165.636719 255.972656 159.96875 255.746094 154.300781 C 255.523438 148.820312 254.308594 143.375 252.003906 138.386719 C 249.75 133.53125 246.339844 129.210938 241.90625 126.171875 C 237.410156 123.09375 232.003906 121.65625 226.582031 121.78125 C 221.1875 121.902344 215.789062 123.484375 211.0625 126.0625 C 206.328125 128.648438 201.945312 132.457031 199.304688 137.210938 C 198.511719 138.632812 197.953125 140.179688 197.972656 141.828125 C 197.972656 142.402344 198.832031 142.402344 198.839844 141.84375 Z M 198.839844 141.84375 " fill-opacity="1" fill-rule="nonzero"/></g><g clip-path="url(#6eefe8c442)"><path fill="#000000" d="M 208.644531 231.476562 C 201.3125 226.445312 193.792969 221.691406 186.375 216.796875 C 178.933594 211.882812 171.507812 206.953125 164.285156 201.730469 C 157.769531 197.011719 151.371094 192.101562 145.457031 186.636719 C 139.84375 181.460938 134.605469 175.828125 130.140625 169.621094 C 125.808594 163.613281 121.953125 156.976562 119.585938 149.929688 C 119.070312 148.390625 118.636719 146.824219 118.285156 145.238281 C 118.113281 144.449219 117.960938 143.652344 117.835938 142.851562 C 117.707031 142.046875 117.648438 141.566406 117.5625 140.6875 C 117.402344 139.070312 117.335938 137.4375 117.378906 135.804688 C 117.402344 135.011719 117.445312 134.214844 117.515625 133.421875 C 117.554688 133.046875 117.589844 132.660156 117.640625 132.28125 C 117.675781 131.976562 117.707031 131.761719 117.777344 131.308594 C 118.28125 128.210938 119.214844 125.191406 120.566406 122.550781 C 122.046875 119.636719 123.839844 117.273438 126.234375 115.074219 C 131.664062 110.085938 139.121094 107.515625 146.566406 108.074219 C 150.3125 108.359375 153.972656 109.417969 157.441406 110.832031 C 159.21875 111.558594 160.925781 112.4375 162.636719 113.300781 C 164.476562 114.222656 166.21875 115.269531 167.910156 116.4375 C 169.671875 117.664062 171.429688 118.882812 173.078125 120.261719 C 174.6875 121.605469 176.261719 123 177.792969 124.429688 C 179.332031 125.867188 180.910156 127.253906 182.382812 128.761719 C 183.878906 130.285156 185.351562 131.839844 186.789062 133.421875 C 187.472656 134.171875 188.144531 134.925781 188.820312 135.679688 C 189.511719 136.457031 190.359375 137.097656 191.042969 137.878906 C 191.222656 138.089844 191.527344 137.785156 191.347656 137.574219 C 190.628906 136.761719 190.078125 135.8125 189.351562 134.996094 C 188.625 134.191406 187.898438 133.386719 187.167969 132.589844 C 185.699219 130.984375 184.21875 129.394531 182.703125 127.832031 C 181.183594 126.273438 179.71875 124.667969 178.128906 123.179688 C 176.574219 121.722656 174.976562 120.300781 173.339844 118.933594 C 170.085938 116.21875 166.820312 113.539062 163.261719 111.21875 C 159.953125 109.054688 156.121094 107.457031 152.316406 106.425781 C 148.5625 105.410156 144.609375 104.960938 140.722656 105.34375 C 136.621094 105.753906 132.726562 107.050781 129.191406 109.164062 C 123.097656 112.792969 118.546875 118.417969 116.226562 125.113281 C 114.019531 131.464844 113.902344 138.425781 115.164062 144.984375 C 116.566406 152.257812 119.882812 159.140625 123.722656 165.417969 C 127.855469 172.179688 132.890625 178.375 138.421875 184.03125 C 144.035156 189.765625 150.191406 194.917969 156.578125 199.761719 C 163.808594 205.25 171.289062 210.402344 178.863281 215.398438 C 186.453125 220.40625 194.234375 225.132812 202.03125 229.804688 C 203.90625 230.929688 205.785156 232.046875 207.679688 233.144531 C 208.761719 233.753906 209.652344 232.164062 208.644531 231.476562 Z M 208.644531 231.476562 " fill-opacity="1" fill-rule="nonzero"/></g></svg>